<mxfile host="app.diagrams.net" modified="2023-03-22T12:43:10.898Z" agent="5.0 (Windows NT 10.0; Win64; x64) AppleWebKit/537.36 (KHTML, like Gecko) Chrome/87.0.4280.88 Safari/537.36" etag="HdaM1_yyA_JXVQvM9Txw" version="21.0.8" type="github">
  <diagram name="Страница 1" id="MmqBgHbG-z-Ey42BIpIS">
    <mxGraphModel dx="1434" dy="841" grid="1" gridSize="10" guides="1" tooltips="1" connect="1" arrows="1" fold="1" page="1" pageScale="1" pageWidth="1169" pageHeight="1654" math="0" shadow="0">
      <root>
        <mxCell id="0" />
        <mxCell id="1" parent="0" />
        <mxCell id="7VB6xAebmm58KDsn_PR9-3" value="input=MetaTN" style="edgeStyle=orthogonalEdgeStyle;rounded=0;orthogonalLoop=1;jettySize=auto;html=1;exitX=0.5;exitY=1;exitDx=0;exitDy=0;" parent="1" source="7VB6xAebmm58KDsn_PR9-1" target="7VB6xAebmm58KDsn_PR9-2" edge="1">
          <mxGeometry relative="1" as="geometry" />
        </mxCell>
        <mxCell id="7VB6xAebmm58KDsn_PR9-1" value="Начало" style="rounded=1;whiteSpace=wrap;html=1;arcSize=50;" parent="1" vertex="1">
          <mxGeometry x="450" y="30" width="120" height="60" as="geometry" />
        </mxCell>
        <mxCell id="7VB6xAebmm58KDsn_PR9-5" value="" style="edgeStyle=orthogonalEdgeStyle;rounded=0;orthogonalLoop=1;jettySize=auto;html=1;" parent="1" source="7VB6xAebmm58KDsn_PR9-2" target="7VB6xAebmm58KDsn_PR9-4" edge="1">
          <mxGeometry relative="1" as="geometry" />
        </mxCell>
        <mxCell id="7VB6xAebmm58KDsn_PR9-2" value="выбрать из списка .../Schema/EntityType по имени @Name=:input" style="rounded=0;whiteSpace=wrap;html=1;" parent="1" vertex="1">
          <mxGeometry x="450" y="150" width="120" height="60" as="geometry" />
        </mxCell>
        <mxCell id="7VB6xAebmm58KDsn_PR9-7" value="" style="edgeStyle=orthogonalEdgeStyle;rounded=0;orthogonalLoop=1;jettySize=auto;html=1;" parent="1" source="7VB6xAebmm58KDsn_PR9-4" target="7VB6xAebmm58KDsn_PR9-6" edge="1">
          <mxGeometry relative="1" as="geometry" />
        </mxCell>
        <mxCell id="7VB6xAebmm58KDsn_PR9-4" value="Читаем вложенные Property и NavigationProperty" style="whiteSpace=wrap;html=1;rounded=0;" parent="1" vertex="1">
          <mxGeometry x="450" y="290" width="120" height="60" as="geometry" />
        </mxCell>
        <mxCell id="7VB6xAebmm58KDsn_PR9-9" value="да, это ссылка" style="edgeStyle=orthogonalEdgeStyle;rounded=0;orthogonalLoop=1;jettySize=auto;html=1;" parent="1" source="7VB6xAebmm58KDsn_PR9-6" target="7VB6xAebmm58KDsn_PR9-8" edge="1">
          <mxGeometry relative="1" as="geometry" />
        </mxCell>
        <mxCell id="7VB6xAebmm58KDsn_PR9-13" value="нет" style="edgeStyle=orthogonalEdgeStyle;rounded=0;orthogonalLoop=1;jettySize=auto;html=1;" parent="1" source="7VB6xAebmm58KDsn_PR9-6" target="7VB6xAebmm58KDsn_PR9-12" edge="1">
          <mxGeometry relative="1" as="geometry" />
        </mxCell>
        <mxCell id="7VB6xAebmm58KDsn_PR9-6" value="Property @Name: на конце _Key и @Type=&quot;Edm.Guid&quot;?" style="rhombus;whiteSpace=wrap;html=1;rounded=0;" parent="1" vertex="1">
          <mxGeometry x="410" y="400" width="200" height="80" as="geometry" />
        </mxCell>
        <mxCell id="7VB6xAebmm58KDsn_PR9-11" value="" style="edgeStyle=orthogonalEdgeStyle;rounded=0;orthogonalLoop=1;jettySize=auto;html=1;" parent="1" source="7VB6xAebmm58KDsn_PR9-8" target="7VB6xAebmm58KDsn_PR9-10" edge="1">
          <mxGeometry relative="1" as="geometry" />
        </mxCell>
        <mxCell id="7VB6xAebmm58KDsn_PR9-8" value="Получить данные в NavigationProperty" style="whiteSpace=wrap;html=1;rounded=0;" parent="1" vertex="1">
          <mxGeometry x="730" y="410" width="120" height="60" as="geometry" />
        </mxCell>
        <mxCell id="7VB6xAebmm58KDsn_PR9-10" value="Получить данные в Association" style="whiteSpace=wrap;html=1;rounded=0;" parent="1" vertex="1">
          <mxGeometry x="930" y="410" width="120" height="60" as="geometry" />
        </mxCell>
        <mxCell id="7VB6xAebmm58KDsn_PR9-15" value="да" style="edgeStyle=orthogonalEdgeStyle;rounded=0;orthogonalLoop=1;jettySize=auto;html=1;" parent="1" source="7VB6xAebmm58KDsn_PR9-12" target="7VB6xAebmm58KDsn_PR9-14" edge="1">
          <mxGeometry relative="1" as="geometry" />
        </mxCell>
        <mxCell id="7VB6xAebmm58KDsn_PR9-17" value="" style="edgeStyle=orthogonalEdgeStyle;rounded=0;orthogonalLoop=1;jettySize=auto;html=1;" parent="1" source="7VB6xAebmm58KDsn_PR9-12" target="7VB6xAebmm58KDsn_PR9-16" edge="1">
          <mxGeometry relative="1" as="geometry" />
        </mxCell>
        <mxCell id="7VB6xAebmm58KDsn_PR9-12" value="Есть ли пара @Type=&quot;Edm.String&quot;&lt;br&gt;полей с именами, отличающимися _Type в конце?" style="rhombus;whiteSpace=wrap;html=1;rounded=0;" parent="1" vertex="1">
          <mxGeometry x="410" y="560" width="200" height="80" as="geometry" />
        </mxCell>
        <mxCell id="7VB6xAebmm58KDsn_PR9-14" value="Это реквизит Multy" style="whiteSpace=wrap;html=1;rounded=0;" parent="1" vertex="1">
          <mxGeometry x="170" y="570" width="120" height="60" as="geometry" />
        </mxCell>
        <mxCell id="7VB6xAebmm58KDsn_PR9-19" value="нет" style="edgeStyle=orthogonalEdgeStyle;rounded=0;orthogonalLoop=1;jettySize=auto;html=1;" parent="1" source="7VB6xAebmm58KDsn_PR9-16" target="7VB6xAebmm58KDsn_PR9-18" edge="1">
          <mxGeometry relative="1" as="geometry" />
        </mxCell>
        <mxCell id="7VB6xAebmm58KDsn_PR9-21" value="да, это таб.часть" style="edgeStyle=orthogonalEdgeStyle;rounded=0;orthogonalLoop=1;jettySize=auto;html=1;entryX=1;entryY=0.5;entryDx=0;entryDy=0;" parent="1" source="7VB6xAebmm58KDsn_PR9-16" target="7VB6xAebmm58KDsn_PR9-2" edge="1">
          <mxGeometry x="-0.9359" relative="1" as="geometry">
            <mxPoint x="670" y="180" as="targetPoint" />
            <Array as="points">
              <mxPoint x="1080" y="760" />
              <mxPoint x="1080" y="180" />
            </Array>
            <mxPoint as="offset" />
          </mxGeometry>
        </mxCell>
        <mxCell id="7VB6xAebmm58KDsn_PR9-16" value="Имя @Type начинается ли с &#39;Collection(&#39;" style="rhombus;whiteSpace=wrap;html=1;rounded=0;" parent="1" vertex="1">
          <mxGeometry x="410" y="720" width="200" height="80" as="geometry" />
        </mxCell>
        <mxCell id="7VB6xAebmm58KDsn_PR9-18" value="Это примитивный тип" style="whiteSpace=wrap;html=1;rounded=0;" parent="1" vertex="1">
          <mxGeometry x="450" y="890" width="120" height="60" as="geometry" />
        </mxCell>
        <mxCell id="7VB6xAebmm58KDsn_PR9-22" value="input=Coolection(StandardODATA_&lt;font color=&quot;#0000ff&quot; style=&quot;font-size: 14px;&quot;&gt;&lt;b&gt;имя&lt;/b&gt;&lt;/font&gt;_RowType)" style="text;html=1;strokeColor=none;fillColor=none;align=center;verticalAlign=middle;whiteSpace=wrap;rounded=0;" parent="1" vertex="1">
          <mxGeometry x="620" y="150" width="280" height="30" as="geometry" />
        </mxCell>
      </root>
    </mxGraphModel>
  </diagram>
</mxfile>
